<svg width="25" height="25" viewBox="0 0 25 25" fill="none" xmlns="http://www.w3.org/2000/svg">
<path d="M24.9998 12.7849C25.0009 11.9331 24.9274 11.0828 24.7802 10.2433H12.7529V15.0574H19.6416C19.5006 15.8263 19.2023 16.5592 18.7645 17.212C18.3267 17.8649 17.7586 18.424 17.0944 18.8559V21.9808H21.2057C23.6129 19.8055 24.9998 16.5886 24.9998 12.7849Z" fill="#4285F4"/>
<path d="M12.7533 24.9999C16.195 24.9999 19.0928 23.8923 21.206 21.9827L17.0948 18.8578C15.9505 19.6182 14.4768 20.0522 12.7533 20.0522C9.42675 20.0522 6.60327 17.8544 5.59362 14.8927H1.3584V18.113C2.41989 20.1832 4.04757 21.9235 6.05973 23.1397C8.07188 24.3558 10.3893 24.9998 12.7533 24.9999Z" fill="#34A853"/>
<path d="M5.59324 14.8926C5.05948 13.3407 5.05948 11.66 5.59324 10.1081V6.8877H1.35802C0.465056 8.62922 0 10.5513 0 12.5003C0 14.4494 0.465056 16.3715 1.35802 18.113L5.59324 14.8926Z" fill="#FBBC04"/>
<path d="M12.7533 4.94855C14.5721 4.91943 16.3295 5.59293 17.6457 6.82348L21.2857 3.25591C18.9776 1.13112 15.9197 -0.0354269 12.7533 0.000820087C10.3893 0.000925682 8.07188 0.644988 6.05973 1.8611C4.04757 3.07722 2.41989 4.81752 1.3584 6.88772L5.59362 10.1081C6.60327 7.14639 9.42675 4.94855 12.7533 4.94855Z" fill="#EA4335"/>
</svg>
