<svg width="20" height="20" viewBox="0 0 20 20" fill="none" xmlns="http://www.w3.org/2000/svg">
<path d="M18.7972 9.78209C19.0676 9.50996 19.0676 9.06873 18.7972 8.7966L13.0664 3.02821C12.48 2.43789 11.991 1.94564 11.5506 1.60741C11.0857 1.2504 10.5946 1 10 1C9.40542 1 8.91427 1.2504 8.44941 1.60741C8.00899 1.94564 7.51998 2.43789 6.93355 3.02821L1.20277 8.7966C0.932409 9.06873 0.932409 9.50996 1.20277 9.78209C1.47314 10.0542 1.91148 10.0542 2.18184 9.78209L2.57845 9.38288V12.4332C2.57845 15.4273 4.62594 18.0276 7.52196 18.7114C9.15186 19.0962 10.8481 19.0962 12.478 18.7114C15.374 18.0276 17.4215 15.4273 17.4215 12.4332V9.38286L17.8182 9.78209C18.0885 10.0542 18.5269 10.0542 18.7972 9.78209Z" fill="#3F4A77" stroke="#3F4A77" stroke-width="1.5" stroke-linecap="round"/>
</svg>
